<svg width="17" height="16" viewBox="0 0 17 16" fill="none" xmlns="http://www.w3.org/2000/svg">
<path d="M9.87799 3H0V14H2.74902V10.421H8.01703L10.421 14H13.5L10.849 10.405C11.673 10.273 12.265 9.96003 12.627 9.46503C12.989 8.97003 13.17 8.17799 13.17 7.12299V6.29797C13.17 5.67197 13.105 5.17697 12.989 4.79797C12.874 4.41797 12.676 4.08799 12.397 3.79199C12.101 3.51099 11.771 3.31303 11.377 3.18103C10.981 3.06603 10.487 3 9.87799 3ZM9.43298 7.99701H2.74902V5.42401H9.43298C9.81198 5.42401 10.076 5.49002 10.208 5.60602C10.339 5.72102 10.421 5.93602 10.421 6.24902V7.172C10.421 7.502 10.339 7.71697 10.208 7.83197C10.076 7.94697 9.81198 7.99701 9.43298 7.99701Z" fill="#333333"/>
<path d="M15 4C16.104 4 17 3.105 17 2C17 0.895 16.104 0 15 0C13.896 0 13 0.895 13 2C13 3.105 13.896 4 15 4Z" fill="#333333"/>
</svg>
